<?xml version="1.0" encoding="utf-8"?>
<!-- Generator: Adobe Illustrator 24.2.3, SVG Export Plug-In . SVG Version: 6.00 Build 0)  -->
<svg version="1.1" id="Layer_1" xmlns="http://www.w3.org/2000/svg" xmlns:xlink="http://www.w3.org/1999/xlink" x="0px" y="0px"
	 viewBox="0 0 1366 768" style="enable-background:new 0 0 1366 768;" xml:space="preserve">
<style type="text/css">
	.st0{fill:#4E99D3;}
	.st1{fill:#4059A4;}
	.st2{fill:#4066AE;}
	.st3{fill:#4D86C6;}
	.st4{fill:#5EC4ED;}
	.st5{fill:#75C9E6;}
	.st6{fill:#50A5DC;}
	.st7{fill:#53B6E7;}
	.st8{fill:#458EBF;}
	.st9{fill:#4868B5;}
	.st10{fill:#4D7ECE;}
	.st11{fill:#357BBA;}
	.st12{fill:#2F8DC1;}
	.st13{fill:#398BB7;}
</style>
<g>
	<polygon class="st0" points="963,768 963,601.82 894.97,450.27 791.44,548.27 	"/>
	<polygon class="st1" points="963,381.07 963,601.82 894.97,450.27 	"/>
	<polygon class="st2" points="963,200.52 963,381.07 894.97,450.27 782.57,200.52 	"/>
	<polygon class="st3" points="963,0 963,200.52 782.57,200.52 855.53,0 	"/>
	<polygon class="st4" points="686.25,0 855.53,0 782.57,200.52 	"/>
	<polygon class="st5" points="612.63,0 686.25,0 782.57,200.52 637.63,118.33 	"/>
	<polygon class="st4" points="424.11,0 612.63,0 637.63,118.33 	"/>
	<polygon class="st6" points="363.82,0 424.11,0 696.79,428.14 	"/>
	<polygon class="st6" points="696.79,428.14 782.57,200.52 894.97,450.27 791.44,548.27 	"/>
	<polyline class="st7" points="696.79,428.14 637.63,118.33 782.57,200.52 	"/>
	<polygon class="st6" points="696.79,428.14 637.63,118.33 424.11,0 	"/>
</g>
<g>
	<polygon class="st8" points="963,768 963,600.9 1031.03,449.35 1134.56,547.35 	"/>
	<polygon class="st9" points="963,380.14 963,601.82 1031.03,449.35 	"/>
	<polygon class="st10" points="963,199.6 963,381.07 1031.03,449.35 1143.43,199.6 	"/>
	<polygon class="st11" points="963,0 963,200.52 1143.43,199.6 1070.81,0 	"/>
	<polygon class="st4" points="1239.55,0 1070.81,0 1143.43,199.6 	"/>
	<polygon class="st5" points="1313.18,0 1239.55,0 1143.24,200.52 1288.18,118.33 	"/>
	<polygon class="st4" points="1366,212.45 1366,0 1313.18,0 1288.37,117.4 	"/>
	<polygon class="st6" points="1366,251.33 1366,212.45 1229.21,427.22 	"/>
	<polygon class="st6" points="1229.21,427.22 1143.43,199.6 1031.03,449.35 1134.56,547.35 	"/>
	<polyline class="st7" points="1229.21,427.22 1288.37,117.4 1143.43,199.6 	"/>
	<polygon class="st6" points="1229.21,427.22 1288.37,117.4 1366,212.45 	"/>
</g>
<g>
	<polygon class="st0" points="0,768 -0.31,601.89 67.72,450.34 171.25,548.34 	"/>
	<polygon class="st1" points="-0.31,381.13 -0.31,601.89 67.72,450.34 	"/>
	<polygon class="st2" points="0,200.59 -0.31,381.13 67.72,450.34 180.13,200.59 	"/>
	<polygon class="st3" points="0,0 0,200.59 180.13,200.59 107.14,0 	"/>
	<polygon class="st4" points="276.44,0.07 107.14,0 180.13,200.59 	"/>
	<polygon class="st5" points="350.07,0.07 276.44,0.07 180.13,200.59 325.07,118.39 	"/>
	<polygon class="st4" points="538.63,0 350.07,0.07 325.07,118.39 	"/>
	<polygon class="st12" points="598.87,0.07 538.63,0 265.91,428.21 	"/>
	<polygon class="st6" points="265.91,428.21 180.13,200.59 67.72,450.34 171.25,548.34 	"/>
	<polyline class="st7" points="265.91,428.21 325.07,118.39 180.13,200.59 	"/>
	<polygon class="st6" points="265.91,428.21 325.07,118.39 538.63,0 	"/>
</g>
<g>
	<polygon class="st0" points="481.38,151.14 481.38,285.2 549.41,406.78 652.94,328.16 	"/>
	<polygon class="st1" points="481.38,462.3 481.38,285.2 549.41,406.78 	"/>
	<polygon class="st2" points="481.38,607.13 481.38,462.3 549.41,406.78 661.81,607.13 	"/>
	<polygon class="st3" points="481.38,768 481.38,607.13 661.81,607.13 588.85,768 	"/>
	<polygon class="st4" points="758.13,768 588.85,768 661.81,607.13 	"/>
	<polygon class="st5" points="831.75,768 758.13,768 661.81,607.13 806.75,673.07 	"/>
	<polygon class="st4" points="1020.27,768 831.75,768 806.75,673.07 	"/>
	<polygon class="st6" points="1080.56,768 1020.27,768 747.59,424.53 	"/>
	<polygon class="st6" points="747.59,424.53 661.81,607.13 549.41,406.78 652.94,328.16 	"/>
	<polyline class="st7" points="747.59,424.53 806.75,673.07 661.81,607.13 	"/>
	<polygon class="st6" points="747.59,424.53 806.75,673.07 1020.27,768 	"/>
</g>
<g>
	<polygon class="st8" points="481.38,151.14 481.38,285.4 413.35,407.16 309.82,328.42 	"/>
	<polygon class="st9" points="481.38,462.76 481.38,285.4 413.35,407.16 	"/>
	<polygon class="st10" points="481.38,607.82 481.38,462.76 413.35,407.16 300.95,607.82 	"/>
	<polygon class="st11" points="481.38,768 481.38,607.82 300.95,607.82 373.91,768 	"/>
	<polygon class="st4" points="205.19,768 373.91,768 300.95,607.82 	"/>
	<polygon class="st5" points="131.25,768 205.19,768 300.95,607.82 156.01,673.86 	"/>
	<polygon class="st4" points="0,768 131.25,768 156.01,673.86 	"/>
	<polygon class="st6" points="215.17,424.94 300.95,607.82 413.35,407.16 309.82,328.42 	"/>
	<polyline class="st7" points="215.17,424.94 156.01,673.86 300.95,607.82 	"/>
	<polygon class="st6" points="215.17,424.94 156.01,673.86 0,768 	"/>
</g>
<g>
	<polygon class="st11" points="957.9,768 1366,768 1034.11,673.38 	"/>
	<polygon class="st4" points="1148.23,528.48 1033.46,673.19 1240.83,735 	"/>
	<polygon class="st5" points="1197.87,465.46 1148.23,528.48 1240.83,735 1273.97,560.08 	"/>
	<polygon class="st4" points="1324.97,304.09 1197.87,465.46 1273.97,560.08 	"/>
	<polygon class="st13" points="1366,251.33 1324.97,304.09 1366,768 	"/>
	<polyline class="st7" points="1366,768 1273.97,560.08 1240.83,735 	"/>
	<polygon class="st6" points="1366,768 1273.97,560.08 1325.45,301.69 	"/>
</g>
</svg>
